# xmcd
# 
# Track frame offsets:
#     150
#     11374
#     24202
#     41268
#     54644
#     65917
#     78959
#     93289
#     105751
#     119589
#     133088
#     146749
# 
# Disc length: 2104
# 
# Revision: 3
# Processed by: cddbd v1.5.2PL0 Copyright (c) Steve Scherf et al.
# Submitted via: fre:ac v1.0.17
# 
DISCID=9508360c
DTITLE=Alexis Korner's Blues Incorporated - R and B from the Marquee
DYEAR=1962
DGENRE=Blues
TTITLE0=Gotta Move
TTITLE1=Rain is Such a Lonesome Sound
TTITLE2=I Got My Brand On You
TTITLE3=Spooky But Nice
TTITLE4=Keep Your Hands Off
TTITLE5=I Wanna Put a Tiger in Your Tank
TTITLE6=I Got My Mojo Working
TTITLE7=Finkle's Cafe
TTITLE8=Hoochie Coochie
TTITLE9=Down Town
TTITLE10=How Long, How Long, Blues
TTITLE11=I Thought I Heard That Train Whistle Blow
EXTD=Ace of Clubs/Decca
EXTT0=
EXTT1=
EXTT2=
EXTT3=
EXTT4=
EXTT5=
EXTT6=
EXTT7=
EXTT8=
EXTT9=
EXTT10=
EXTT11=
PLAYORDER=
